<mxfile host="Electron" agent="Mozilla/5.0 (Macintosh; Intel Mac OS X 10_15_7) AppleWebKit/537.36 (KHTML, like Gecko) draw.io/26.0.4 Chrome/128.0.6613.186 Electron/32.2.5 Safari/537.36" version="26.0.4">
  <diagram name="Page-1" id="0JUde7hD4ImCmMAl2v1w">
    <mxGraphModel dx="1194" dy="754" grid="1" gridSize="10" guides="1" tooltips="1" connect="1" arrows="1" fold="1" page="0" pageScale="1" pageWidth="1390" pageHeight="980" math="0" shadow="0">
      <root>
        <mxCell id="0" />
        <mxCell id="1" parent="0" />
        <mxCell id="38r4zXWFkEAHNDtatkCd-23" value="User Web Interface" style="fillColor=none;strokeColor=none;" parent="1" vertex="1">
          <mxGeometry x="511" y="20" width="197" height="54" as="geometry" />
        </mxCell>
        <mxCell id="38r4zXWFkEAHNDtatkCd-24" value="Go/Fiber API" style="fillColor=none;strokeColor=none;" parent="1" vertex="1">
          <mxGeometry x="534" y="147" width="151" height="54" as="geometry" />
        </mxCell>
        <mxCell id="38r4zXWFkEAHNDtatkCd-25" value="S3 Bucket&#xa;Originals" style="fillColor=none;strokeColor=none;" parent="1" vertex="1">
          <mxGeometry x="506" y="273" width="207" height="54" as="geometry" />
        </mxCell>
        <mxCell id="38r4zXWFkEAHNDtatkCd-26" value="S3 Bucket&#xa;Originals" style="fillColor=none;strokeColor=none;" parent="1" vertex="1">
          <mxGeometry x="506" y="400" width="207" height="54" as="geometry" />
        </mxCell>
        <mxCell id="38r4zXWFkEAHNDtatkCd-27" value="Lambda&#xa;Photo Processing" style="fillColor=none;strokeColor=none;" parent="1" vertex="1">
          <mxGeometry x="485" y="526" width="250" height="54" as="geometry" />
        </mxCell>
        <mxCell id="38r4zXWFkEAHNDtatkCd-28" value="S3 Bucket&#xa;Processed" style="fillColor=none;strokeColor=none;" parent="1" vertex="1">
          <mxGeometry x="790" y="665" width="214" height="54" as="geometry" />
        </mxCell>
        <mxCell id="38r4zXWFkEAHNDtatkCd-29" value="CloudFront&#xa;Signed URLs" style="fillColor=none;strokeColor=none;" parent="1" vertex="1">
          <mxGeometry x="777" y="803" width="239" height="54" as="geometry" />
        </mxCell>
        <mxCell id="38r4zXWFkEAHNDtatkCd-30" value="DynamoDB&#xa;Customer &amp; Photo Metadata" style="fillColor=none;strokeColor=none;" parent="1" vertex="1">
          <mxGeometry x="480" y="653" width="260" height="78" as="geometry" />
        </mxCell>
        <mxCell id="38r4zXWFkEAHNDtatkCd-31" value="Go/Fiber API" style="fillColor=none;strokeColor=none;" parent="1" vertex="1">
          <mxGeometry x="534" y="803" width="151" height="54" as="geometry" />
        </mxCell>
        <mxCell id="38r4zXWFkEAHNDtatkCd-32" value="SQS Queue&#xa;Print Requests" style="fillColor=none;strokeColor=none;" parent="1" vertex="1">
          <mxGeometry x="177" y="665" width="253" height="54" as="geometry" />
        </mxCell>
        <mxCell id="38r4zXWFkEAHNDtatkCd-33" value="Lambda&#xa;Print Service" style="fillColor=none;strokeColor=none;" parent="1" vertex="1">
          <mxGeometry x="193" y="803" width="221" height="54" as="geometry" />
        </mxCell>
        <mxCell id="38r4zXWFkEAHNDtatkCd-34" value="Printer&#xa;3rd Party Print API" style="fillColor=none;strokeColor=none;" parent="1" vertex="1">
          <mxGeometry x="30" y="942" width="254" height="54" as="geometry" />
        </mxCell>
        <mxCell id="38r4zXWFkEAHNDtatkCd-35" value="SNS&#xa;Email Notification" style="fillColor=none;strokeColor=none;" parent="1" vertex="1">
          <mxGeometry x="338" y="942" width="229" height="54" as="geometry" />
        </mxCell>
        <mxCell id="38r4zXWFkEAHNDtatkCd-36" value="User Access&#xa;Processed Photo" style="fillColor=none;strokeColor=none;" parent="1" vertex="1">
          <mxGeometry x="767" y="930" width="260" height="78" as="geometry" />
        </mxCell>
        <mxCell id="38r4zXWFkEAHNDtatkCd-37" value="Customer&#xa;Receive Notifications" style="fillColor=none;strokeColor=none;" parent="1" vertex="1">
          <mxGeometry x="323" y="1058" width="260" height="78" as="geometry" />
        </mxCell>
        <mxCell id="38r4zXWFkEAHNDtatkCd-38" value="Form with Email and Photo" style="curved=1;startArrow=circle;startFill=0;endArrow=circle;endFill=0;exitX=0.5;exitY=1;entryX=0.5;entryY=-0.01;rounded=0;" parent="1" source="38r4zXWFkEAHNDtatkCd-23" target="38r4zXWFkEAHNDtatkCd-24" edge="1">
          <mxGeometry relative="1" as="geometry">
            <Array as="points" />
          </mxGeometry>
        </mxCell>
        <mxCell id="38r4zXWFkEAHNDtatkCd-39" value="Generate Presigned URL" style="curved=1;startArrow=none;endArrow=circle;endFill=0;exitX=0.5;exitY=0.99;entryX=0.5;entryY=0;rounded=0;" parent="1" source="38r4zXWFkEAHNDtatkCd-24" target="38r4zXWFkEAHNDtatkCd-25" edge="1">
          <mxGeometry relative="1" as="geometry">
            <Array as="points" />
          </mxGeometry>
        </mxCell>
        <mxCell id="38r4zXWFkEAHNDtatkCd-40" value="Upload Photo" style="curved=1;startArrow=none;endArrow=circle;endFill=0;exitX=0.5;exitY=1;entryX=0.5;entryY=-0.01;rounded=0;" parent="1" source="38r4zXWFkEAHNDtatkCd-25" target="38r4zXWFkEAHNDtatkCd-26" edge="1">
          <mxGeometry relative="1" as="geometry">
            <Array as="points" />
          </mxGeometry>
        </mxCell>
        <mxCell id="38r4zXWFkEAHNDtatkCd-41" value="S3 Event Trigger" style="curved=1;startArrow=none;endArrow=circle;endFill=0;exitX=0.5;exitY=0.99;entryX=0.5;entryY=0;rounded=0;" parent="1" source="38r4zXWFkEAHNDtatkCd-26" target="38r4zXWFkEAHNDtatkCd-27" edge="1">
          <mxGeometry relative="1" as="geometry">
            <Array as="points" />
          </mxGeometry>
        </mxCell>
        <mxCell id="38r4zXWFkEAHNDtatkCd-42" value="Processed Photo" style="curved=1;startArrow=none;endArrow=circle;endFill=0;exitX=0.99;exitY=1;entryX=0.5;entryY=-0.01;rounded=0;" parent="1" source="38r4zXWFkEAHNDtatkCd-27" target="38r4zXWFkEAHNDtatkCd-28" edge="1">
          <mxGeometry relative="1" as="geometry">
            <Array as="points">
              <mxPoint x="897" y="616" />
            </Array>
          </mxGeometry>
        </mxCell>
        <mxCell id="38r4zXWFkEAHNDtatkCd-43" value="" style="curved=1;startArrow=none;endArrow=circle;endFill=0;exitX=0.5;exitY=0.99;entryX=0.5;entryY=0;rounded=0;" parent="1" source="38r4zXWFkEAHNDtatkCd-28" target="38r4zXWFkEAHNDtatkCd-29" edge="1">
          <mxGeometry relative="1" as="geometry">
            <Array as="points" />
          </mxGeometry>
        </mxCell>
        <mxCell id="38r4zXWFkEAHNDtatkCd-44" value="Update Metadata" style="curved=1;startArrow=none;endArrow=circle;endFill=0;exitX=0.5;exitY=1;entryX=0.5;entryY=-0.01;rounded=0;" parent="1" source="38r4zXWFkEAHNDtatkCd-27" target="38r4zXWFkEAHNDtatkCd-30" edge="1">
          <mxGeometry relative="1" as="geometry">
            <Array as="points" />
          </mxGeometry>
        </mxCell>
        <mxCell id="38r4zXWFkEAHNDtatkCd-45" value="Query Metadata" style="curved=1;startArrow=none;endArrow=circle;endFill=0;exitX=0.5;exitY=0.99;entryX=0.5;entryY=0;rounded=0;" parent="1" source="38r4zXWFkEAHNDtatkCd-30" target="38r4zXWFkEAHNDtatkCd-31" edge="1">
          <mxGeometry relative="1" as="geometry">
            <Array as="points" />
          </mxGeometry>
        </mxCell>
        <mxCell id="38r4zXWFkEAHNDtatkCd-46" value="Send Print Request" style="curved=1;startArrow=none;endArrow=circle;endFill=0;exitX=0;exitY=0.98;entryX=0.5;entryY=-0.01;rounded=0;" parent="1" source="38r4zXWFkEAHNDtatkCd-27" target="38r4zXWFkEAHNDtatkCd-32" edge="1">
          <mxGeometry relative="1" as="geometry">
            <Array as="points">
              <mxPoint x="303" y="616" />
            </Array>
          </mxGeometry>
        </mxCell>
        <mxCell id="38r4zXWFkEAHNDtatkCd-47" value="" style="curved=1;startArrow=none;endArrow=circle;endFill=0;exitX=0.5;exitY=0.99;entryX=0.5;entryY=0;rounded=0;" parent="1" source="38r4zXWFkEAHNDtatkCd-32" target="38r4zXWFkEAHNDtatkCd-33" edge="1">
          <mxGeometry relative="1" as="geometry">
            <Array as="points" />
          </mxGeometry>
        </mxCell>
        <mxCell id="38r4zXWFkEAHNDtatkCd-48" value="Send to Printer" style="curved=1;startArrow=none;endArrow=circle;endFill=0;exitX=0.22;exitY=1;entryX=0.5;entryY=-0.01;rounded=0;" parent="1" source="38r4zXWFkEAHNDtatkCd-33" target="38r4zXWFkEAHNDtatkCd-34" edge="1">
          <mxGeometry relative="1" as="geometry">
            <Array as="points">
              <mxPoint x="157" y="893" />
            </Array>
          </mxGeometry>
        </mxCell>
        <mxCell id="38r4zXWFkEAHNDtatkCd-49" value="Notify Customer" style="curved=1;startArrow=none;endArrow=circle;endFill=0;exitX=0.79;exitY=1;entryX=0.5;entryY=-0.01;rounded=0;" parent="1" source="38r4zXWFkEAHNDtatkCd-33" target="38r4zXWFkEAHNDtatkCd-35" edge="1">
          <mxGeometry relative="1" as="geometry">
            <Array as="points">
              <mxPoint x="453" y="893" />
            </Array>
          </mxGeometry>
        </mxCell>
        <mxCell id="38r4zXWFkEAHNDtatkCd-50" value="" style="curved=1;startArrow=none;endArrow=circle;endFill=0;exitX=0.5;exitY=1;entryX=0.5;entryY=-0.01;rounded=0;" parent="1" source="38r4zXWFkEAHNDtatkCd-29" target="38r4zXWFkEAHNDtatkCd-36" edge="1">
          <mxGeometry relative="1" as="geometry">
            <Array as="points" />
          </mxGeometry>
        </mxCell>
        <mxCell id="38r4zXWFkEAHNDtatkCd-51" value="" style="curved=1;startArrow=none;endArrow=circle;endFill=0;exitX=0.5;exitY=0.99;entryX=0.5;entryY=-0.01;rounded=0;" parent="1" source="38r4zXWFkEAHNDtatkCd-35" target="38r4zXWFkEAHNDtatkCd-37" edge="1">
          <mxGeometry relative="1" as="geometry">
            <Array as="points" />
          </mxGeometry>
        </mxCell>
      </root>
    </mxGraphModel>
  </diagram>
</mxfile>
